<svg width="26" height="33" viewBox="0 0 26 33" fill="none" xmlns="http://www.w3.org/2000/svg">
<path d="M25.15 24.8167L23 22.6667V14.3333C23 9.21666 20.2667 4.93332 15.5 3.79999V2.66666C15.5 1.28332 14.3834 0.166656 13 0.166656C11.6167 0.166656 10.5 1.28332 10.5 2.66666V3.79999C5.71669 4.93332 3.00002 9.19999 3.00002 14.3333V22.6667L0.850025 24.8167C-0.199975 25.8667 0.533358 27.6667 2.01669 27.6667H23.9667C25.4667 27.6667 26.2 25.8667 25.15 24.8167ZM19.6667 24.3333H6.33336V14.3333C6.33336 10.2 8.85002 6.83332 13 6.83332C17.15 6.83332 19.6667 10.2 19.6667 14.3333V24.3333ZM13 32.6667C14.8334 32.6667 16.3334 31.1667 16.3334 29.3333H9.66669C9.66669 30.2174 10.0179 31.0652 10.643 31.6903C11.2681 32.3155 12.116 32.6667 13 32.6667Z" fill="#E7E2E2" fill-opacity="0.81"/>
</svg>
