<svg width="34" height="32" viewBox="0 0 34 32" fill="none" xmlns="http://www.w3.org/2000/svg">
<path d="M6.14203 0.486C6.23086 0.337758 6.35659 0.215066 6.50696 0.129891C6.65733 0.0447156 6.82721 -3.62359e-05 7.00003 2.20145e-08H25C25.1728 -3.62359e-05 25.3427 0.0447156 25.4931 0.129891C25.6435 0.215066 25.7692 0.337758 25.858 0.486L31.858 10.486C31.9645 10.6639 32.0131 10.8706 31.997 11.0773C31.9808 11.2841 31.9008 11.4807 31.768 11.64L30.954 12.616C30.4047 11.8086 29.6659 11.148 28.8023 10.692C27.9387 10.236 26.9766 9.99838 26 10H29.234L24.434 2H20.476L23.676 10H26C24.222 10 22.626 10.772 21.528 12H10.46L16 26.24L16.06 26.086L16.08 26.26C16.2164 27.3213 16.5487 28.3481 17.06 29.288L16.768 29.64C16.6742 29.7525 16.5567 29.8431 16.424 29.9052C16.2913 29.9673 16.1466 29.9995 16 29.9995C15.8535 29.9995 15.7087 29.9673 15.576 29.9052C15.4433 29.8431 15.3259 29.7525 15.232 29.64L0.232027 11.64C0.0992183 11.4807 0.0192137 11.2841 0.00308915 11.0773C-0.0130354 10.8706 0.0355179 10.6639 0.142027 10.486L6.14203 0.486ZM7.56603 2L2.76603 10H8.32403L11.524 2H7.56603ZM12.85 23.658L8.31603 12H3.13603L12.85 23.658ZM13.678 2L10.478 10H21.522L18.322 2H13.68H13.678ZM18.472 27.596C18.2714 27.0827 18.1344 26.5467 18.064 26C18.0209 25.6684 17.9995 25.3344 18 25C18 24.2044 18.3161 23.4413 18.8787 22.8787C19.4413 22.3161 20.2044 22 21 22H31C31.7957 22 32.5587 22.3161 33.1213 22.8787C33.684 23.4413 34 24.2044 34 25C34 27.232 33.082 29.02 31.576 30.23C30.094 31.42 28.106 32 26 32C23.894 32 21.906 31.42 20.424 30.23C19.5542 29.5378 18.8812 28.6296 18.472 27.596ZM23.262 13.084C23.98 12.412 24.942 12 26 12C26.8125 11.9984 27.6061 12.2454 28.274 12.708C28.8056 13.0772 29.2401 13.5693 29.5406 14.1424C29.8411 14.7156 29.9987 15.3528 30 16C30 17.0609 29.5786 18.0783 28.8285 18.8284C28.0783 19.5786 27.0609 20 26 20C24.9392 20 23.9217 19.5786 23.1716 18.8284C22.4215 18.0783 22 17.0609 22 16C22 14.85 22.486 13.814 23.262 13.084Z" fill="#E7E2E2" fill-opacity="0.81"/>
</svg>
